# xmcd CD Database Entry
#
# Track frame offsets:
# 150
# 23502
# 58786
# 92547
# 132105
# 168086
# 200388
# 219354
# 237401
# 267277
# 300407
#
# Disc length: 4221 seconds
#
# Revision: 7
# Processed by: cddbd v1.4PL0 Copyright (c) Steve Scherf et al.
# Submitted via: tcd 2.0b
#
DISCID=86107b0b
DTITLE=Ayreon - The Dream Sequencer
DYEAR=1900
DGENRE=
TTITLE0=The Dream Sequencer
TTITLE1=My House On Mars
TTITLE2=2084
TTITLE3=One Small Step
TTITLE4=The Shooting Company Of Captain
TTITLE5=Dragon On The Sea
TTITLE6=Temple Of The Cat
TTITLE7=Carried By The Wind
TTITLE8=And The Druids Turn To Stone
TTITLE9=The First Man On Earth
TTITLE10=The Dream Sequencer Reprise
EXTD=
EXTT0=
EXTT1=
EXTT2=
EXTT3=
EXTT4=
EXTT5=
EXTT6=
EXTT7=
EXTT8=
EXTT9=
EXTT10=
PLAYORDER=
